<?xml version="1.0" encoding="utf-8" ?>
<svg baseProfile="full" height="200mm" version="1.1" viewBox="0,0,200,200" width="200mm" xmlns="http://www.w3.org/2000/svg" xmlns:ev="http://www.w3.org/2001/xml-events" xmlns:xlink="http://www.w3.org/1999/xlink"><defs /><rect fill="#1a1a1a" height="200" width="200" x="0" y="0" /><text alignment-baseline="middle" fill="#e1ed5e" style="dominant-baseline: central; font-size:9.0px; font-family:Arial;" text-anchor="middle" x="100.0" y="100.0">2024</text><line stroke="#e1ed5e" stroke-width="0.3" x1="100.0" x2="100.0" y1="15.0" y2="10.0" /><path d="M 100.0 14.0 a86.0,86.0 0 0,1 42.35913384403234,11.155469271406648" fill="none" id="id13" stroke="none" /><text fill="#e1ed5e" style="font-size:6.75px; font-family:Arial;" text-anchor="middle"><textPath startOffset="22.145653131862478" xlink:href="#id13">January</textPath></text><path d="M 100.36049292484886 79.00309439819443 l 0.04978908063449601 -2.899964337778651 a23.900391717154495,23.900391717154495 0 0,0 0.41016109349316243,0.01056429482682233 l -0.09956348819839982 2.8986823256017837" fill="#ff1602" stroke="none" /><path d="M 101.08105385017728 79.02784411241856 l 0.1027193365916095 -1.9927276881858549 a22.995373373925883,22.995373373925883 0 0,0 0.39404833254428684,0.023704969177535264 l -0.1369120212683587 1.9906707411836277" fill="#ff0901" stroke="none" /><path d="M 102.15924093988457 79.11130261209362 l 6.135538785467359 -59.35577203729834 a80.67204127840526,80.67204127840526 0 0,0 1.3762807683157703,0.154215130736754 l -7.153555455383926 59.24170114605461" fill="#49f1ff" stroke="none" /><path d="M 102.87502721639298 79.19773525538626 l 0.5145904112036707 -3.7233198725431524 a24.75871176928712,24.75871176928712 0 0,0 0.4205148050285869,0.06180119511658852 l -0.5784303218399396 3.7139376041276817" fill="#ff2203" stroke="none" /><path d="M 103.94208987418118 79.37332000966035 l 5.519402009030641 -28.87984358853827 a50.4025366972941,50.4025366972941 0 0,0 0.8484511362213515,0.1697139895041928 l -6.014349630782949 28.78084020237122" fill="#96ff23" stroke="none" /><path d="M 105.3480935250658 79.69241777938227 l 1.173390486537872 -4.455554801084987 a25.60747369166326,25.60747369166326 0 0,0 0.4241312202398107,0.11559885010412188 l -1.2497031077123752 4.434755456836723" fill="#ff2e04" stroke="none" /><path d="M 106.38641147887787 79.99465700312896 l 1.436774405396601 -4.500675361139547 a25.72444699392123,25.72444699392123 0 0,0 0.4195256277144717,0.1379064066675328 l -1.513822770758815 4.475348033069992" fill="#ff3004" stroke="none" /><path d="M 106.72888874123014 80.10723608172694 l 20.186666223690402 -59.67829175481916 a84.0,84.0 0 0,0 1.3619769118199267,0.4737662697256382 l -21.208148907555344 59.32296705252493" fill="#4dd2ff" stroke="none" /><path d="M 107.40779381753099 80.34994680014964 l 1.5424496960259033 -4.091531072756565 a25.372616789075266,25.372616789075266 0 0,0 0.4062370256004551,0.15714120846751514 l -1.6124589841198842 4.064449976151012" fill="#ff2b04" stroke="none" /><path d="M 108.07796709384702 80.6158196554323 l 1.7857104351293416 -4.285054979252076 a25.642247078015433,25.642247078015433 0 0,0 0.40486046308968804,0.17281085720172956 l -1.8590059733894597 4.253769472390945" fill="#ff2f04" stroke="none" /><path d="M 108.73861861582097 80.90454125486305 l 1.1744995548301917 -2.566493490726011 a23.822470202187315,23.822470202187315 0 0,0 0.3703954944987584,0.1733637937903304 l -1.2183837632004553 2.5459534653651468" fill="#ff1502" stroke="none" /><path d="M 109.3889696526874 81.21577127319529 l 2.0637578830301897 -4.128898222659543 a25.61593946373329,25.61593946373329 0 0,0 0.3916467072398869,0.1999775993099583 l -2.1343318119836554 4.092862671676751" fill="#ff2f04" stroke="none" /><line stroke="#e1ed5e" stroke-width="0.3" x1="143.13028292997686" x2="145.6673583964461" y1="26.7553504044142" y2="22.446841604673864" /><path d="M 143.63769802327073 25.89364864446614 a86.0,86.0 0 0,1 29.32050498858742,28.57503671076993" fill="none" id="id14" stroke="none" /><text fill="#e1ed5e" style="font-size:6.75px; font-family:Arial;" text-anchor="middle"><textPath startOffset="20.669276256404974" xlink:href="#id14">February</textPath></text><path d="M 111.27062007382361 82.28071324371311 l 2.588063367398029 -4.068865479449119 a25.822213006859023,25.822213006859023 0 0,0 0.37198049721404,0.2411132641532718 l -2.6575294968690764 4.023838373591953" fill="#ff3204" stroke="none" /><path d="M 113.31354834802062 83.75963576809568 l 1.7641080129448485 -2.1519249358421275 a23.782599146631682,23.782599146631682 0 0,0 0.31350637352986277,0.2615381670391686 l -1.800788720636604 2.1213245848910884" fill="#ff1402" stroke="none" /><path d="M 114.91283532996326 85.21462403516908 l 3.3043794161163142 -3.276137026710438 a25.653170654879993,25.653170654879993 0 0,0 0.30736553948087997,0.3153841209335103 l -3.360131756748006 3.2189302137091858" fill="#ff2f04" stroke="none" /><path d="M 115.6541949942343 86.00192230759917 l 3.4400817365064293 -3.0761423013807003 a25.614847106046835,25.614847106046835 0 0,0 0.29028810522054627,0.33029457628849007 l -3.4923809056855655 3.0166354472809127" fill="#ff2f04" stroke="none" /><path d="M 116.1254893667686 86.54754324733833 l 1.6430696105886282 -1.370707106948748 a23.139746648152457,23.139746648152457 0 0,0 0.25184108087845475,0.3072051698847523 l -1.6663575107057107 1.3422996553655004" fill="#ff0b01" stroke="none" /><path d="M 116.35404254752997 86.82634096563983 l 2.1330311894675433 -1.7182189368796266 a23.738995868980652,23.738995868980652 0 0,0 0.2529147751786819,0.31954955636441296 l -2.1622123952877845 1.6813494366005353" fill="#ff1302" stroke="none" /><path d="M 116.7966241395341 87.39550010848427 l 2.236043717206073 -1.6779688916543285 a23.795616409061946,23.795616409061946 0 0,0 0.2423730615550632,0.328825607093705 l -2.264518798344962 1.6393369752917486" fill="#ff1402" stroke="none" /><path d="M 117.21940702142032 87.97951657250589 l 2.2635147530039315 -1.5801090910114235 a23.76047890348095,23.76047890348095 0 0,0 0.23060140279582717,0.33645433828553006 l -2.2903058926150837 1.5410200176558446" fill="#ff1402" stroke="none" /><path d="M 117.62189284568427 88.57770195909679 l 2.3709620638503033 -1.5368289646367763 a23.82547418582507,23.82547418582507 0 0,0 0.21951465445624785,0.3451134972202042 l -2.396994409932441 1.4959017927379001" fill="#ff1502" stroke="none" /><line stroke="#e1ed5e" stroke-width="0.3" x1="172.87174338648825" x2="177.1583165268699" y1="56.24261187166439" y2="53.66864786411523" /><path d="M 173.72905801456457 55.72781907015455 a86.0,86.0 0 0,1 12.242430191666344,42.057860355516425" fill="none" id="id15" stroke="none" /><text fill="#e1ed5e" style="font-size:6.75px; font-family:Arial;" text-anchor="middle"><textPath startOffset="22.145653131862474" xlink:href="#id15">March</textPath></text><path d="M 118.18653347947321 89.5 l 26.10844336486147 -15.073716804824873 a51.14743360964974,51.14743360964974 0 0,0 0.4324798892313372,0.7641505248491635 l -26.36335661911418 14.623309509876592" fill="#8eff24" stroke="none" /><path d="M 118.36410011445183 89.81374322990088 l 2.1257407563117106 -1.1791125639429207 a23.43085997159292,23.43085997159292 0 0,0 0.19208245269626065,0.3534100782635929 l -2.1456685586233126 1.1424476522047244" fill="#ff0f01" stroke="none" /><path d="M 118.53625476483649 90.13048839642627 l 4.182944858199934 -2.2271825316853566 a25.73892073326677,25.73892073326677 0 0,0 0.2043081142632892,0.39178774813448797 l -4.220561041438168 2.1550485404463706" fill="#ff3004" stroke="none" /><path d="M 118.8641267826498 90.77261029715802 l 4.520482386303541 -2.2111944594021935 a26.03230980188735,26.03230980188735 0 0,0 0.19291273182796032,0.40311341380675375 l -4.5577743760914124 2.1332685435303365" fill="#ff3405" stroke="none" /><path d="M 119.16976305983485 91.42560881287824 l 2.86964357138111 -1.2835550690861166 a24.143623362005314,24.143623362005314 0 0,0 0.16597719899129004,0.3797883128341088 l -2.8912546523893705 1.2341046864761585" fill="#ff1902" stroke="none" /><path d="M 119.31412917781788 91.75594674310238 l 5.928018095705154 -2.530318423311255 a27.445456528932308,27.445456528932308 0 0,0 0.1812369288314453,0.4349026522081572 l -5.970580869073082 2.42818326166182" fill="#ff4806" stroke="none" /><path d="M 119.58574465831526 92.42381321644754 l 4.341838170261436 -1.6795162775642858 a25.655355370252906,25.655355370252906 0 0,0 0.15536066661583717,0.4121126261560697 l -4.3700295206917135 1.6047353712140582" fill="#ff2f04" stroke="none" /><path d="M 119.83427380445688 93.10060997987247 l 5.031096939008889 -1.7500766780527244 a26.326791228194388,26.326791228194388 0 0,0 0.1448156280989159,0.428121672423653 l -5.06039798868017 1.6634533311549098" fill="#ff3905" stroke="none" /><path d="M 120.05942366710727 93.78553927170692 l 5.671572986879016 -1.7570678091017278 a26.937510204730373,26.937510204730373 0 0,0 0.1330503661130703,0.4428813965040262 l -5.700899672995714 1.659448809006978" fill="#ff4106" stroke="none" /><path d="M 120.16314734710363 94.1308016681162 l 14.369630414832718 -4.1827899885202084 a35.96602854290177,35.96602854290177 0 0,0 0.16746726214350274,0.5942822339554749 l -14.439316169050803 3.935499830661721" fill="#ffbb11" stroke="none" /><path d="M 120.35273937422433 94.82641323984039 l 6.626864479831778 -1.6845230366212725 a27.83761293836993,27.83761293836993 0 0,0 0.11375306772017231,0.4641513346278365 l -6.654805074068242 1.570515877385341" fill="#ff4e07" stroke="none" /><path d="M 120.51834098615036 95.52812308129327 l 4.882556435340851 -1.0641304500311006 a25.997172296306356,25.997172296306356 0 0,0 0.09129004748680873,0.4368559245935885 l -4.900104193652026 0.9801580741521078" fill="#ff3404" stroke="none" /><path d="M 120.7213421655516 96.59031103205396 l 7.190871399796694 -1.1832551523890547 a28.287573275382506,28.287573275382506 0 0,0 0.07473106458798608,0.47982704310340846 l -7.210123956522946 1.059639927354205" fill="#ff5407" stroke="none" /><path d="M 120.82617615685814 97.30363454192243 l 27.811156252439297 -3.6007109756238775 a49.0432796161143,49.0432796161143 0 0,0 0.10093086799963921,0.8358523751914476 l -27.868869206698598 3.122764923509017" fill="#a5ff21" stroke="none" /><path d="M 120.86939407059847 97.66154086499901 l 1.3973921992159926 -0.15658071060335504 a22.406137431890198,22.406137431890198 0 0,0 0.03954961468224555,0.3826066455325218 l -1.3998742063799043 0.13256954278790184" fill="#ff0000" stroke="none" /><path d="M 120.96210409425399 98.7389718711861 l 4.877934667005035 -0.29344443658668795 a25.88675314016712,25.88675314016712 0 0,0 0.022876999638646568,0.443807681350174 l -4.882253256100254 0.2096649618597833" fill="#ff3204" stroke="none" /><path d="M 120.99303781780057 99.45929381324524 l 5.746080501995574 -0.14799865098063383 a26.747986146130295,26.747986146130295 0 0,0 0.007882463898250513,0.4591140046661596 l -5.74777439749249 0.04933773034540786" fill="#ff3f05" stroke="none" /><line stroke="#e1ed5e" stroke-width="0.3" x1="184.99686870605535" x2="189.99668451229388" y1="99.2704041080226" y2="99.22748670261217" /><path d="M 185.99683186730306 99.26182062694052 a86.0,86.0 0 0,1 -10.086455211305974,41.156179273409016" fill="none" id="id16" stroke="none" /><text fill="#e1ed5e" style="font-size:6.75px; font-family:Arial;" text-anchor="middle"><textPath startOffset="21.40746469413373" xlink:href="#id16">April</textPath></text><path d="M 120.99922638620191 100.18025310272382 l 5.493628538538367 0.047156193807899593 a26.493830924414915,26.493830924414915 0 0,0 -0.007807565947097961,0.4547515744999692 l -5.4920095409926 -0.14145468427693986" fill="#ff3b05" stroke="none" /><path d="M 120.98066250479742 100.90099992219065 l 5.476312423226658 0.23517641857546848 a26.481359840827878,26.481359840827878 0 0,0 -0.023402473698776814,0.45400173773517744 l -5.4714683600713085 -0.3291499496873766" fill="#ff3b05" stroke="none" /><path d="M 120.96210409425399 101.26102812881392 l 22.2141706284433 1.3363493423552606 a43.25433005674191,43.25433005674191 0 0,0 -0.0509495613363151,0.7407954399383646 l -22.187957105941916 -1.7174882064479688" fill="#e8ff1a" stroke="none" /><path d="M 120.93736805541906 101.62068470465957 l 6.358981215217307 0.4922253630657658 a27.378003441793663,27.378003441793663 0 0,0 -0.04029309067402981,0.4682667905318617 l -6.349594501845536 -0.6013132009732849" fill="#ff4806" stroke="none" /><line stroke="#e1ed5e" stroke-width="0.3" x1="174.33088141563837" x2="178.70328620479359" y1="141.23008692659167" y2="143.65538615756765" /><path d="M 175.20536237346943 141.71514677278685 a86.0,86.0 0 0,1 -30.301960400862466,31.631185727798858" fill="none" id="id17" stroke="none" /><text fill="#e1ed5e" style="font-size:6.75px; font-family:Arial;" text-anchor="middle"><textPath startOffset="22.145653131862474" xlink:href="#id17">May</textPath></text><line stroke="#e1ed5e" stroke-width="0.3" x1="143.1302829299769" x2="145.66735839644613" y1="173.24464959558577" y2="177.55315839532614" /><path d="M 143.63769802327073 174.10635135553383 a86.0,86.0 0 0,1 -40.68552437913181,11.842963189579606" fill="none" id="id18" stroke="none" /><text fill="#e1ed5e" style="font-size:6.75px; font-family:Arial;" text-anchor="middle"><textPath startOffset="21.407464694133747" xlink:href="#id18">June</textPath></text><line stroke="#e1ed5e" stroke-width="0.3" x1="101.45913802915013" x2="101.54496967792366" y1="184.9874750549273" y2="189.98673829345242" /><path d="M 101.47630435890484 185.9873277026323 a86.0,86.0 0 0,1 -42.54439059252881,-10.42667462771756" fill="none" id="id19" stroke="none" /><text fill="#e1ed5e" style="font-size:6.75px; font-family:Arial;" text-anchor="middle"><textPath startOffset="22.145653131862474" xlink:href="#id19">July</textPath></text><line stroke="#e1ed5e" stroke-width="0.3" x1="58.13341422392154" x2="55.67067388415222" y1="173.97424548756322" y2="178.32567169271397" /><path d="M 57.64086615596768 174.84453072859336 a86.0,86.0 0 0,1 -31.369924170532247,-30.572349798747897" fill="none" id="id20" stroke="none" /><text fill="#e1ed5e" style="font-size:6.75px; font-family:Arial;" text-anchor="middle"><textPath startOffset="22.145653131862474" xlink:href="#id20">August</textPath></text><line stroke="#e1ed5e" stroke-width="0.3" x1="26.387840678322732" x2="22.057713659400548" y1="142.50000000000003" y2="145.00000000000006" /><path d="M 25.521815274538298 143.00000000000003 a86.0,86.0 0 0,1 -11.493303480769221,-40.785679425670985" fill="none" id="id21" stroke="none" /><text fill="#e1ed5e" style="font-size:6.75px; font-family:Arial;" text-anchor="middle"><textPath startOffset="21.40746469413373" xlink:href="#id21">September</textPath></text><line stroke="#e1ed5e" stroke-width="0.3" x1="15.003131293944662" x2="10.003315487706104" y1="100.72959589197737" y2="100.7725132973878" /><path d="M 14.003168132696942 100.73817937305945 a86.0,86.0 0 0,1 10.791469493833604,-42.45332614584628" fill="none" id="id22" stroke="none" /><text fill="#e1ed5e" style="font-size:6.75px; font-family:Arial;" text-anchor="middle"><textPath startOffset="22.145653131862435" xlink:href="#id22">October</textPath></text><line stroke="#e1ed5e" stroke-width="0.3" x1="26.387840678322718" x2="22.05771365940052" y1="57.49999999999999" y2="54.99999999999999" /><path d="M 25.521815274538284 56.99999999999999 a86.0,86.0 0 0,1 29.574782752854787,-30.34633250058573" fill="none" id="id23" stroke="none" /><text fill="#e1ed5e" style="font-size:6.75px; font-family:Arial;" text-anchor="middle"><textPath startOffset="21.40746469413373" xlink:href="#id23">November</textPath></text><line stroke="#e1ed5e" stroke-width="0.3" x1="56.869717070023135" x2="54.33264160355391" y1="26.7553504044142" y2="22.446841604673864" /><path d="M 56.362301976729285 25.89364864446614 a86.0,86.0 0 0,1 42.16139366436587,-11.88097634709845" fill="none" id="id24" stroke="none" /><text fill="#e1ed5e" style="font-size:6.75px; font-family:Arial;" text-anchor="middle"><textPath startOffset="22.145653131862474" xlink:href="#id24">December</textPath></text></svg>