<?xml version="1.0" encoding="utf-8" ?>
<svg baseProfile="full" height="200mm" version="1.1" viewBox="0,0,200,200" width="200mm" xmlns="http://www.w3.org/2000/svg" xmlns:ev="http://www.w3.org/2001/xml-events" xmlns:xlink="http://www.w3.org/1999/xlink"><defs /><rect fill="#1a1a1a" height="200" width="200" x="0" y="0" /><text alignment-baseline="middle" fill="#e1ed5e" style="dominant-baseline: central; font-size:9.0px; font-family:Arial;" text-anchor="middle" x="100.0" y="100.0">2024</text><line stroke="#e1ed5e" stroke-width="0.3" x1="100.0" x2="100.0" y1="15.0" y2="10.0" /><path d="M 100.0 14.0 a86.0,86.0 0 0,1 42.35913384403234,11.155469271406648" fill="none" id="id13" stroke="none" /><text fill="#e1ed5e" style="font-size:6.75px; font-family:Arial;" text-anchor="middle"><textPath startOffset="22.145653131862478" xlink:href="#id13">January</textPath></text><path d="M 100.36049292484886 79.00309439819443 l 0.04978908063449601 -2.899964337778651 a23.900391717154495,23.900391717154495 0 0,0 0.41016109349316243,0.01056429482682233 l -0.09956348819839982 2.8986823256017837" fill="#ff0d01" stroke="none" /><path d="M 101.08105385017728 79.02784411241856 l 0.1027193365916095 -1.9927276881858549 a22.995373373925883,22.995373373925883 0 0,0 0.39404833254428684,0.023704969177535264 l -0.1369120212683587 1.9906707411836277" fill="#ff0000" stroke="none" /><path d="M 102.15924093988457 79.11130261209362 l 6.135538785467359 -59.35577203729834 a80.67204127840526,80.67204127840526 0 0,0 1.3762807683157703,0.154215130736754 l -7.153555455383926 59.24170114605461" fill="#49f1ff" stroke="none" /><path d="M 102.87502721639298 79.19773525538626 l 0.5145904112036707 -3.7233198725431524 a24.75871176928712,24.75871176928712 0 0,0 0.4205148050285869,0.06180119511658852 l -0.5784303218399396 3.7139376041276817" fill="#ff1a02" stroke="none" /><path d="M 103.94208987418118 79.37332000966035 l 5.519402009030641 -28.87984358853827 a50.4025366972941,50.4025366972941 0 0,0 0.8484511362213515,0.1697139895041928 l -6.014349630782949 28.78084020237122" fill="#99ff23" stroke="none" /><path d="M 105.3480935250658 79.69241777938227 l 1.173390486537872 -4.455554801084987 a25.60747369166326,25.60747369166326 0 0,0 0.4241312202398107,0.11559885010412188 l -1.2497031077123752 4.434755456836723" fill="#ff2603" stroke="none" /><path d="M 106.38641147887787 79.99465700312896 l 1.436774405396601 -4.500675361139547 a25.72444699392123,25.72444699392123 0 0,0 0.4195256277144717,0.1379064066675328 l -1.513822770758815 4.475348033069992" fill="#ff2803" stroke="none" /><path d="M 106.72888874123014 80.10723608172694 l 20.186666223690402 -59.67829175481916 a84.0,84.0 0 0,0 1.3619769118199267,0.4737662697256382 l -21.208148907555344 59.32296705252493" fill="#4dd2ff" stroke="none" /><path d="M 107.40779381753099 80.34994680014964 l 1.5424496960259033 -4.091531072756565 a25.372616789075266,25.372616789075266 0 0,0 0.4062370256004551,0.15714120846751514 l -1.6124589841198842 4.064449976151012" fill="#ff2303" stroke="none" /><path d="M 108.07796709384702 80.6158196554323 l 1.7857104351293416 -4.285054979252076 a25.642247078015433,25.642247078015433 0 0,0 0.40486046308968804,0.17281085720172956 l -1.8590059733894597 4.253769472390945" fill="#ff2703" stroke="none" /><path d="M 108.73861861582097 80.90454125486305 l 1.1744995548301917 -2.566493490726011 a23.822470202187315,23.822470202187315 0 0,0 0.3703954944987584,0.1733637937903304 l -1.2183837632004553 2.5459534653651468" fill="#ff0c01" stroke="none" /><path d="M 109.3889696526874 81.21577127319529 l 2.0637578830301897 -4.128898222659543 a25.61593946373329,25.61593946373329 0 0,0 0.3916467072398869,0.1999775993099583 l -2.1343318119836554 4.092862671676751" fill="#ff2603" stroke="none" /><line stroke="#e1ed5e" stroke-width="0.3" x1="143.13028292997686" x2="145.6673583964461" y1="26.7553504044142" y2="22.446841604673864" /><path d="M 143.63769802327073 25.89364864446614 a86.0,86.0 0 0,1 29.32050498858742,28.57503671076993" fill="none" id="id14" stroke="none" /><text fill="#e1ed5e" style="font-size:6.75px; font-family:Arial;" text-anchor="middle"><textPath startOffset="20.669276256404974" xlink:href="#id14">February</textPath></text><path d="M 111.27062007382361 82.28071324371311 l 2.588063367398029 -4.068865479449119 a25.822213006859023,25.822213006859023 0 0,0 0.37198049721404,0.2411132641532718 l -2.6575294968690764 4.023838373591953" fill="#ff2904" stroke="none" /><path d="M 113.31354834802062 83.75963576809568 l 1.7641080129448485 -2.1519249358421275 a23.782599146631682,23.782599146631682 0 0,0 0.31350637352986277,0.2615381670391686 l -1.800788720636604 2.1213245848910884" fill="#ff0c01" stroke="none" /><path d="M 114.91283532996326 85.21462403516908 l 3.3043794161163142 -3.276137026710438 a25.653170654879993,25.653170654879993 0 0,0 0.30736553948087997,0.3153841209335103 l -3.360131756748006 3.2189302137091858" fill="#ff2703" stroke="none" /><path d="M 115.6541949942343 86.00192230759917 l 3.4400817365064293 -3.0761423013807003 a25.614847106046835,25.614847106046835 0 0,0 0.29028810522054627,0.33029457628849007 l -3.4923809056855655 3.0166354472809127" fill="#ff2603" stroke="none" /><line stroke="#e1ed5e" stroke-width="0.3" x1="172.87174338648825" x2="177.1583165268699" y1="56.24261187166439" y2="53.66864786411523" /><path d="M 173.72905801456457 55.72781907015455 a86.0,86.0 0 0,1 12.242430191666344,42.057860355516425" fill="none" id="id15" stroke="none" /><text fill="#e1ed5e" style="font-size:6.75px; font-family:Arial;" text-anchor="middle"><textPath startOffset="22.145653131862474" xlink:href="#id15">March</textPath></text><line stroke="#e1ed5e" stroke-width="0.3" x1="184.99686870605535" x2="189.99668451229388" y1="99.2704041080226" y2="99.22748670261217" /><path d="M 185.99683186730306 99.26182062694052 a86.0,86.0 0 0,1 -10.086455211305974,41.156179273409016" fill="none" id="id16" stroke="none" /><text fill="#e1ed5e" style="font-size:6.75px; font-family:Arial;" text-anchor="middle"><textPath startOffset="21.40746469413373" xlink:href="#id16">April</textPath></text><line stroke="#e1ed5e" stroke-width="0.3" x1="174.33088141563837" x2="178.70328620479359" y1="141.23008692659167" y2="143.65538615756765" /><path d="M 175.20536237346943 141.71514677278685 a86.0,86.0 0 0,1 -30.301960400862466,31.631185727798858" fill="none" id="id17" stroke="none" /><text fill="#e1ed5e" style="font-size:6.75px; font-family:Arial;" text-anchor="middle"><textPath startOffset="22.145653131862474" xlink:href="#id17">May</textPath></text><line stroke="#e1ed5e" stroke-width="0.3" x1="143.1302829299769" x2="145.66735839644613" y1="173.24464959558577" y2="177.55315839532614" /><path d="M 143.63769802327073 174.10635135553383 a86.0,86.0 0 0,1 -40.68552437913181,11.842963189579606" fill="none" id="id18" stroke="none" /><text fill="#e1ed5e" style="font-size:6.75px; font-family:Arial;" text-anchor="middle"><textPath startOffset="21.407464694133747" xlink:href="#id18">June</textPath></text><line stroke="#e1ed5e" stroke-width="0.3" x1="101.45913802915013" x2="101.54496967792366" y1="184.9874750549273" y2="189.98673829345242" /><path d="M 101.47630435890484 185.9873277026323 a86.0,86.0 0 0,1 -42.54439059252881,-10.42667462771756" fill="none" id="id19" stroke="none" /><text fill="#e1ed5e" style="font-size:6.75px; font-family:Arial;" text-anchor="middle"><textPath startOffset="22.145653131862474" xlink:href="#id19">July</textPath></text><line stroke="#e1ed5e" stroke-width="0.3" x1="58.13341422392154" x2="55.67067388415222" y1="173.97424548756322" y2="178.32567169271397" /><path d="M 57.64086615596768 174.84453072859336 a86.0,86.0 0 0,1 -31.369924170532247,-30.572349798747897" fill="none" id="id20" stroke="none" /><text fill="#e1ed5e" style="font-size:6.75px; font-family:Arial;" text-anchor="middle"><textPath startOffset="22.145653131862474" xlink:href="#id20">August</textPath></text><line stroke="#e1ed5e" stroke-width="0.3" x1="26.387840678322732" x2="22.057713659400548" y1="142.50000000000003" y2="145.00000000000006" /><path d="M 25.521815274538298 143.00000000000003 a86.0,86.0 0 0,1 -11.493303480769221,-40.785679425670985" fill="none" id="id21" stroke="none" /><text fill="#e1ed5e" style="font-size:6.75px; font-family:Arial;" text-anchor="middle"><textPath startOffset="21.40746469413373" xlink:href="#id21">September</textPath></text><line stroke="#e1ed5e" stroke-width="0.3" x1="15.003131293944662" x2="10.003315487706104" y1="100.72959589197737" y2="100.7725132973878" /><path d="M 14.003168132696942 100.73817937305945 a86.0,86.0 0 0,1 10.791469493833604,-42.45332614584628" fill="none" id="id22" stroke="none" /><text fill="#e1ed5e" style="font-size:6.75px; font-family:Arial;" text-anchor="middle"><textPath startOffset="22.145653131862435" xlink:href="#id22">October</textPath></text><line stroke="#e1ed5e" stroke-width="0.3" x1="26.387840678322718" x2="22.05771365940052" y1="57.49999999999999" y2="54.99999999999999" /><path d="M 25.521815274538284 56.99999999999999 a86.0,86.0 0 0,1 29.574782752854787,-30.34633250058573" fill="none" id="id23" stroke="none" /><text fill="#e1ed5e" style="font-size:6.75px; font-family:Arial;" text-anchor="middle"><textPath startOffset="21.40746469413373" xlink:href="#id23">November</textPath></text><line stroke="#e1ed5e" stroke-width="0.3" x1="56.869717070023135" x2="54.33264160355391" y1="26.7553504044142" y2="22.446841604673864" /><path d="M 56.362301976729285 25.89364864446614 a86.0,86.0 0 0,1 42.16139366436587,-11.88097634709845" fill="none" id="id24" stroke="none" /><text fill="#e1ed5e" style="font-size:6.75px; font-family:Arial;" text-anchor="middle"><textPath startOffset="22.145653131862474" xlink:href="#id24">December</textPath></text></svg>