<?xml version="1.0" encoding="utf-8" ?>
<svg baseProfile="full" height="200mm" version="1.1" viewBox="0,0,200,200" width="200mm" xmlns="http://www.w3.org/2000/svg" xmlns:ev="http://www.w3.org/2001/xml-events" xmlns:xlink="http://www.w3.org/1999/xlink"><defs /><rect fill="#1a1a1a" height="200" width="200" x="0" y="0" /><text alignment-baseline="middle" fill="#e1ed5e" style="dominant-baseline: central; font-size:9.0px; font-family:Arial;" text-anchor="middle" x="100.0" y="100.0">2025</text><line stroke="#e1ed5e" stroke-width="0.3" x1="100.0" x2="100.0" y1="15.0" y2="10.0" /><path d="M 100.0 14.0 a86.0,86.0 0 0,1 42.46469731375804,11.215312516191453" fill="none" id="id25" stroke="none" /><text fill="#e1ed5e" style="font-size:6.75px; font-family:Arial;" text-anchor="middle"><textPath startOffset="22.20632615414155" xlink:href="#id25">January</textPath></text><path d="M 103.59715602781102 79.31037775812273 l 1.528617067067687 -8.792087256043338 a29.92398276867511,29.92398276867511 0 0,0 0.5067197270749331,0.09259979125195936 l -1.679731915245521 8.76447198344064" fill="#ff0000" stroke="none" /><line stroke="#e1ed5e" stroke-width="0.3" x1="143.23703022742887" x2="145.7803849466894" y1="26.81831364943548" y2="22.513508569990506" /><path d="M 143.74570117128098 25.957352633546492 a86.0,86.0 0 0,1 28.547481713284135,27.462654790039103" fill="none" id="id26" stroke="none" /><text fill="#e1ed5e" style="font-size:6.75px; font-family:Arial;" text-anchor="middle"><textPath startOffset="19.985693538727396" xlink:href="#id26">February</textPath></text><path d="M 116.38621287248628 86.86637796730983 l 9.261112438048045 -7.422822546617725 a32.86871931375684,32.86871931375684 0 0,0 0.3500454738392419,0.4445222041014101 l -9.387511992481251 7.262307948563277" fill="#ff3104" stroke="none" /><line stroke="#e1ed5e" stroke-width="0.3" x1="172.23445277983987" x2="176.4835382374775" y1="55.19839476539836" y2="52.563006222186495" /><path d="M 173.08426987136738 54.67131705675599 a86.0,86.0 0 0,1 12.851231095245387,41.99856678651699" fill="none" id="id27" stroke="none" /><text fill="#e1ed5e" style="font-size:6.75px; font-family:Arial;" text-anchor="middle"><textPath startOffset="22.20632615414155" xlink:href="#id27">March</textPath></text><path d="M 117.84615892207809 88.93136811851018 l 10.083722681064902 -6.25417574947496 a32.86575650407269,32.86575650407269 0 0,0 0.29404554402319244,0.48333356030412455 l -10.189884023374319 6.079674415963754" fill="#ff3104" stroke="none" /><line stroke="#e1ed5e" stroke-width="0.3" x1="184.98032266829074" x2="189.97916517819016" y1="98.17113171792111" y2="98.06355123074" /><path d="M 185.9800911702706 98.14961562048488 a86.0,86.0 0 0,1 -9.607161424134198,41.387399972396054" fill="none" id="id28" stroke="none" /><text fill="#e1ed5e" style="font-size:6.75px; font-family:Arial;" text-anchor="middle"><textPath startOffset="21.466115282336823" xlink:href="#id28">April</textPath></text><path d="M 120.70491114924044 103.5080841355445 l 22.872726135445294 3.875382372522438 a44.19871094264377,44.19871094264377 0 0,0 -0.1335507358729799,0.7490234507737827 l -22.802628957233125 -4.268524574029439" fill="#ffde14" stroke="none" /><path d="M 120.64145759157962 103.86396538481128 l 27.337049569991628 5.11734274542742 a48.81189450516376,48.81189450516376 0 0,0 -0.16170698915757403,0.8245404538816404 l -27.24491264785839 -5.587146926377006" fill="#e0ff1b" stroke="none" /><path d="M 120.02730092923936 106.31721596034902 l 41.10816469917583 12.966757480492541 a64.10473297089862,64.10473297089862 0 0,0 -0.34099978187541236,1.0494894148583165 l -40.87887266628417 -13.672445795328652" fill="#31ff3c" stroke="none" /><path d="M 118.64920377521936 109.65438752849418 l 28.44530681736345 14.725669722514148 a53.03093549540059,53.03093549540059 0 0,0 -0.42664016849692465,0.8070424152507515 l -28.18761414064163 -15.213127152851035" fill="#a8ff21" stroke="none" /><line stroke="#e1ed5e" stroke-width="0.3" x1="174.80103733775053" x2="179.2010983576182" y1="140.37084112569926" y2="142.7455964860345" /><path d="M 175.68104954172406 140.8457921977663 a86.0,86.0 0 0,1 -30.038265399797805,32.042727171017184" fill="none" id="id29" stroke="none" /><text fill="#e1ed5e" style="font-size:6.75px; font-family:Arial;" text-anchor="middle"><textPath startOffset="22.206326154141568" xlink:href="#id29">May</textPath></text><path d="M 117.75023020441432 111.22182372390056 l 25.437550081078257 16.081802866238995 a51.09473936680524,51.09473936680524 0 0,0 -0.47638578452560176,0.7393613167245301 l -25.156959433175604 -16.51728578288498" fill="#c2ff1e" stroke="none" /><path d="M 116.498646956653 112.99209946851258 l 36.47461366165229 28.722464939869727 a67.42604262683648,67.42604262683648 0 0,0 -0.7258962142358862,0.9056671389046195 l -35.97479953536155 -29.346059912352597" fill="#35ff69" stroke="none" /><path d="M 115.32070863581623 114.36230785411682 l 44.230732218145555 41.463838770807975 a81.62678944299176,81.62678944299176 0 0,0 -0.9697785332378642,1.0168089149764181 l -43.51044713352872 -42.2190548023669" fill="#4aebff" stroke="none" /><path d="M 114.81725581225074 114.88116024355365 l 10.310604139224104 10.35507210969417 a35.612873643221285,35.612873643221285 0 0,0 -0.43812321913147817,0.42879578263428336 l -10.130830967716832 -10.531017995251025" fill="#ff5d08" stroke="none" /><line stroke="#e1ed5e" stroke-width="0.3" x1="143.8653032363475" x2="146.44561519142675" y1="172.8068346515853" y2="177.08958963109032" /><path d="M 144.38136562736335 173.6633856474863 a86.0,86.0 0 0,1 -40.68145358897372,12.25698825130547" fill="none" id="id30" stroke="none" /><text fill="#e1ed5e" style="font-size:6.75px; font-family:Arial;" text-anchor="middle"><textPath startOffset="21.466115282336833" xlink:href="#id30">June</textPath></text><path d="M 110.8373102113329 117.98757091392108 l 32.51193063399873 53.96271274176323 a84.0,84.0 0 0,0 -1.2449285158864716,0.735525710825002 l -31.578234247083873 -54.514357024881974" fill="#4dd2ff" stroke="none" /><line stroke="#e1ed5e" stroke-width="0.3" x1="102.19456741930631" x2="102.32365962044197" y1="184.97166512339345" y2="189.96999836594603" /><path d="M 102.22038585953345 185.97133177190398 a86.0,86.0 0 0,1 -42.740103519485714,-10.115201625700543" fill="none" id="id31" stroke="none" /><text fill="#e1ed5e" style="font-size:6.75px; font-family:Arial;" text-anchor="middle"><textPath startOffset="22.20632615414155" xlink:href="#id31">July</textPath></text><line stroke="#e1ed5e" stroke-width="0.3" x1="58.666819895761336" x2="56.23545636021788" y1="174.27360380694188" y2="178.64263932499728" /><path d="M 58.180547188652646 175.14741091055294 a86.0,86.0 0 0,1 -31.652253787137756,-30.449443065178592" fill="none" id="id32" stroke="none" /><text fill="#e1ed5e" style="font-size:6.75px; font-family:Arial;" text-anchor="middle"><textPath startOffset="22.20632615414155" xlink:href="#id32">August</textPath></text><line stroke="#e1ed5e" stroke-width="0.3" x1="26.63291911575756" x2="22.317208475507996" y1="142.92168965132927" y2="145.44649492493687" /><path d="M 25.769776987707644 143.4266507060508 a86.0,86.0 0 0,1 -11.730757126820373,-40.83630448921669" fill="none" id="id33" stroke="none" /><text fill="#e1ed5e" style="font-size:6.75px; font-family:Arial;" text-anchor="middle"><textPath startOffset="21.46611528233685" xlink:href="#id33">September</textPath></text><line stroke="#e1ed5e" stroke-width="0.3" x1="15.007084014347285" x2="10.007500721073583" y1="101.09737516637583" y2="101.16192664675087" /><path d="M 14.007167355692545 101.11028546245083 a86.0,86.0 0 0,1 10.666146001902534,-42.60595125391555" fill="none" id="id34" stroke="none" /><text fill="#e1ed5e" style="font-size:6.75px; font-family:Arial;" text-anchor="middle"><textPath startOffset="22.20632615414155" xlink:href="#id34">October</textPath></text><line stroke="#e1ed5e" stroke-width="0.3" x1="26.266209847984243" x2="21.928928074336255" y1="57.711370442889674" y2="55.22380399835377" /><path d="M 25.398753493254645 57.213857153982495 a86.0,86.0 0 0,1 29.58750427330803,-30.492523968695096" fill="none" id="id35" stroke="none" /><text fill="#e1ed5e" style="font-size:6.75px; font-family:Arial;" text-anchor="middle"><textPath startOffset="21.46611528233685" xlink:href="#id35">November</textPath></text><line stroke="#e1ed5e" stroke-width="0.3" x1="56.762969772571076" x2="54.21961505331055" y1="26.818313649435495" y2="22.513508569990535" /><path d="M 56.25429882871897 25.957352633546506 a86.0,86.0 0 0,1 42.265352541879196,-11.944610805530505" fill="none" id="id36" stroke="none" /><text fill="#e1ed5e" style="font-size:6.75px; font-family:Arial;" text-anchor="middle"><textPath startOffset="22.20632615414155" xlink:href="#id36">December</textPath></text></svg>