<?xml version="1.0" encoding="utf-8" ?>
<svg baseProfile="full" height="200mm" version="1.1" viewBox="0,0,200,200" width="200mm" xmlns="http://www.w3.org/2000/svg" xmlns:ev="http://www.w3.org/2001/xml-events" xmlns:xlink="http://www.w3.org/1999/xlink"><defs /><rect fill="#1a1a1a" height="200" width="200" x="0" y="0" /><text alignment-baseline="middle" fill="#e1ed5e" style="dominant-baseline: central; font-size:9.0px; font-family:Arial;" text-anchor="middle" x="100.0" y="100.0">2024</text><line stroke="#e1ed5e" stroke-width="0.3" x1="100.0" x2="100.0" y1="15.0" y2="10.0" /><path d="M 100.0 14.0 a86.0,86.0 0 0,1 42.35913384403234,11.155469271406648" fill="none" id="id13" stroke="none" /><text fill="#e1ed5e" style="font-size:6.75px; font-family:Arial;" text-anchor="middle"><textPath startOffset="22.145653131862478" xlink:href="#id13">January</textPath></text><path d="M 100.36049292484886 79.00309439819443 l 0.039647634948248814 -2.3092759689868076 a23.309616296248567,23.309616296248567 0 0,0 0.4000226365375077,0.010303164139227335 l -0.07928358555649785 2.3082550874975354" fill="#ff0b01" stroke="none" /><path d="M 101.08105385017728 79.02784411241856 l 0.08179662503124785 -1.5868326734621654 a22.588939464370366,22.588939464370366 0 0,0 0.38708368788531367,0.023285993449589787 l -0.10902466504902386 1.5851947021878838" fill="#ff0000" stroke="none" /><path d="M 102.15924093988457 79.11130261209362 l 4.885802245733597 -47.26570468497064 a68.51755362969848,68.51755362969848 0 0,0 1.168922836936333,0.13098024201843259 l -5.696460984270726 47.17486868244524" fill="#3aff8f" stroke="none" /><path d="M 102.87502721639298 79.19773525538626 l 0.4097744427346748 -2.9649237387177867 a23.993106725516277,23.993106725516277 0 0,0 0.4075113717841492,0.059890138227472814 l -0.46061092012650595 2.957452527191432" fill="#ff1502" stroke="none" /><path d="M 103.94208987418118 79.37332000966035 l 4.395165228961112 -22.997361697969815 a44.41358841478849,44.41358841478849 0 0,0 0.7476361711813956,0.1495481730084354 l -4.789297885673465 22.91852412829852" fill="#dbff1b" stroke="none" /><path d="M 105.3480935250658 79.69241777938227 l 0.9343847500122159 -3.5480110898642043 a24.668985902787686,24.668985902787686 0 0,0 0.4085872436699727,0.11136227016901896 l -0.9951533946168812 3.531448325551043" fill="#ff1e03" stroke="none" /><path d="M 106.38641147887787 79.99465700312896 l 1.1441204859019656 -3.5839411265490826 a24.762133129599544,24.762133129599544 0 0,0 0.403831788772733,0.132747530088133 l -1.205475012322441 3.563772675058928" fill="#ff2003" stroke="none" /><path d="M 106.72888874123014 80.10723608172694 l 16.074881541486075 -47.522530958139846 a71.16764659858154,71.16764659858154 0 0,0 1.1539129944741429,0.4013908387400295 l -16.888300308005235 47.23958168683123" fill="#3dffac" stroke="none" /><path d="M 107.40779381753099 80.34994680014964 l 1.2282709721637628 -3.258134681034391 a24.481966568021466,24.481966568021466 0 0,0 0.3919769632797617,0.1516251100208419 l -1.2840201979370505 3.236569682875511" fill="#ff1c02" stroke="none" /><path d="M 108.07796709384702 80.6158196554323 l 1.4219823815391754 -3.41224006118429 a24.696676362431365,24.696676362431365 0 0,0 0.38993103055475115,0.16643837021149882 l -1.4803484872643566 3.387327041313389" fill="#ff1f03" stroke="none" /><path d="M 108.73861861582097 80.90454125486305 l 0.9352679142367054 -2.043729181592103 a23.247566470450163,23.247566470450163 0 0,0 0.36145680131544566,0.1691800340394621 l -0.9702134294236561 2.0273729159821072" fill="#ff0a01" stroke="none" /><path d="M 109.3889696526874 81.21577127319529 l 1.6433948593792909 -3.2878905853316724 a24.67572729741298,24.67572729741298 0 0,0 0.3772716342675461,0.19263758462383096 l -1.6995937153604157 3.2591950490350077" fill="#ff1f03" stroke="none" /><line stroke="#e1ed5e" stroke-width="0.3" x1="143.13028292997686" x2="145.6673583964461" y1="26.7553504044142" y2="22.446841604673864" /><path d="M 143.63769802327073 25.89364864446614 a86.0,86.0 0 0,1 29.32050498858742,28.57503671076993" fill="none" id="id14" stroke="none" /><text fill="#e1ed5e" style="font-size:6.75px; font-family:Arial;" text-anchor="middle"><textPath startOffset="20.669276256404974" xlink:href="#id14">February</textPath></text><path d="M 111.27062007382361 82.28071324371311 l 2.060905530005701 -3.240085800478911 a24.83998536430455,24.83998536430455 0 0,0 0.3578310698679896,0.2319417762960934 l -2.116222232130698 3.2042301824789226" fill="#ff2103" stroke="none" /><path d="M 113.31354834802062 83.75963576809568 l 1.4047801167483012 -1.7136033283809997 a23.215816676408455,23.215816676408455 0 0,0 0.3060349480677241,0.2553052381881977 l -1.433989398977918 1.689235906280932" fill="#ff0901" stroke="none" /><path d="M 114.91283532996326 85.21462403516908 l 2.6313164884976246 -2.608826739119632 a24.70537493614142,24.70537493614142 0 0,0 0.29600944840243343,0.3037317710700035 l -2.6757127380508696 2.5632722759818867" fill="#ff1f03" stroke="none" /><path d="M 115.6541949942343 86.00192230759917 l 2.739377854401418 -2.4495685692478473 a24.674857440041976,24.674857440041976 0 0,0 0.27963538424424067,0.31817373531047227 l -2.7810243026042487 2.402182556126077" fill="#ff1f03" stroke="none" /><path d="M 116.1254893667686 86.54754324733833 l 1.3083958025536402 -1.0915103131995068 a22.703905613571617,22.703905613571617 0 0,0 0.24709761160417962,0.3014189086474521 l -1.3269402333964473 1.0688891228535595" fill="#ff0200" stroke="none" /><path d="M 116.35404254752997 86.82634096563983 l 1.698558014237457 -1.368238101656629 a23.18109486968248,23.18109486968248 0 0,0 0.2469709093728904,0.3120396760895718 l -1.7217953542519069 1.338878481652379" fill="#ff0901" stroke="none" /><path d="M 116.7966241395341 87.39550010848427 l 1.7805881108535377 -1.3361865136496494 a23.226182476746274,23.226182476746274 0 0,0 0.23657302497874114,0.32095674354864684 l -1.8032631554161047 1.3054234608321276" fill="#ff0901" stroke="none" /><path d="M 117.21940702142032 87.97951657250589 l 1.8024636222123311 -1.258259594683604 a23.198202064645592,23.198202064645592 0 0,0 0.22514436515269948,0.32849235727866094 l -1.8237977241803556 1.2271325023348942" fill="#ff0901" stroke="none" /><path d="M 117.62189284568427 88.57770195909679 l 1.8880251891727873 -1.2237951171486001 a23.24995857822043,23.24995857822043 0 0,0 0.21421217406269194,0.3367771173229505 l -1.9087550548613692 1.1912043251469775" fill="#ff0a01" stroke="none" /><line stroke="#e1ed5e" stroke-width="0.3" x1="172.87174338648825" x2="177.1583165268699" y1="56.24261187166439" y2="53.66864786411523" /><path d="M 173.72905801456457 55.72781907015455 a86.0,86.0 0 0,1 12.242430191666344,42.057860355516425" fill="none" id="id15" stroke="none" /><text fill="#e1ed5e" style="font-size:6.75px; font-family:Arial;" text-anchor="middle"><textPath startOffset="22.145653131862474" xlink:href="#id15">March</textPath></text><path d="M 118.18653347947321 89.5 l 20.79046285662621 -12.003379326850062 a45.00675865370012,45.00675865370012 0 0,0 0.38055708025869506,0.6724078965419688 l -20.993453301906282 11.644714660208974" fill="#d4ff1c" stroke="none" /><path d="M 118.36410011445183 89.81374322990088 l 1.692752555918213 -0.9389413080608868 a22.93572260294463,22.93572260294463 0 0,0 0.18802339552521177,0.34594187025000006 l -1.708621301058766 0.9097446043362835" fill="#ff0500" stroke="none" /><path d="M 118.53625476483649 90.13048839642627 l 3.3309285617067927 -1.7735318438115086 a24.773658739765366,24.773658739765366 0 0,0 0.1966461435184395,0.37709490896252773 l -3.360882774200177 1.7160906917444827" fill="#ff2003" stroke="none" /><path d="M 118.8641267826498 90.77261029715802 l 3.5997136954156916 -1.7608003523814415 a25.007287931994643,25.007287931994643 0 0,0 0.18531679544700688,0.38724082822585093 l -3.6294097488226105 1.698747022090487" fill="#ff2303" stroke="none" /><path d="M 119.16976305983485 91.42560881287824 l 2.2851311833799834 -1.0221101126306384 a23.503304537525832,23.503304537525832 0 0,0 0.16157527789788242,0.3697158559216272 l -2.302340343294836 0.9827321869331618" fill="#ff0d01" stroke="none" /><path d="M 119.31412917781788 91.75594674310238 l 4.720551061195753 -2.014922546707287 a26.132593417618985,26.132593417618985 0 0,0 0.17256739629808432,0.4140989301605929 l -4.75444430203032 1.9335911071054162" fill="#ff3304" stroke="none" /><path d="M 119.58574465831526 92.42381321644754 l 3.457457189109642 -1.3374187153874633 a24.707114650883433,24.707114650883433 0 0,0 0.14961842262243152,0.3968806417439348 l -3.479906295546514 1.2778697934493708" fill="#ff1f03" stroke="none" /><path d="M 119.83427380445688 93.10060997987247 l 4.0063221149111605 -1.3936067984915648 a25.24178698159492,25.24178698159492 0 0,0 0.13884735152090966,0.4104775232140272 l -4.029654888004435 1.324627600803376" fill="#ff2703" stroke="none" /><path d="M 120.05942366710727 93.78553927170692 l 9.032688488072289 -2.798349983109215 a30.456226729014116,30.456226729014116 0 0,0 0.15043009119701103,0.5007328488592226 l -9.079394899272927 2.6428795306592687" fill="#ff700a" stroke="none" /><path d="M 120.16314734710363 94.1308016681162 l 11.442706990532644 -3.3308052371455044 a32.91762588769175,32.91762588769175 0 0,0 0.1532730998392035,0.5439121593787657 l -11.49819858244643 3.1338851538637256" fill="#ff910d" stroke="none" /><path d="M 120.35273937422433 94.82641323984039 l 10.554108462877716 -2.682813099743417 a31.889751676431466,31.889751676431466 0 0,0 0.13031135572075397,0.5317148001998437 l -10.598607345114761 2.5012424749354785" fill="#ff840c" stroke="none" /><path d="M 120.51834098615036 95.52812308129327 l 7.776053855386643 -1.6947547454248741 a28.958593293353644,28.958593293353644 0 0,0 0.10168918860752554,0.48661957938768197 l -7.804000754818536 1.5610187147517878" fill="#ff5b08" stroke="none" /><path d="M 120.7213421655516 96.59031103205396 l 11.452366531306453 -1.8844825545899004 a32.606376422723066,32.606376422723066 0 0,0 0.08614062431955838,0.5530846012459987 l -11.483028647764277 1.6876097714124605" fill="#ff8d0d" stroke="none" /><path d="M 120.82617615685814 97.30363454192243 l 22.146353307465176 -2.867288821090991 a43.33119589280044,43.33119589280044 0 0,0 0.0891754231600317,0.7385004284049292 l -22.19231081688487 2.486694715762649" fill="#e8ff1a" stroke="none" /><path d="M 120.86939407059847 97.66154086499901 l 2.226197087317111 -0.24945002703664948 a23.240129189928066,23.240129189928066 0 0,0 0.04102171368988712,0.39684786805088784 l -2.230151193488664 0.2111976367028302" fill="#ff0a01" stroke="none" /><path d="M 120.96210409425399 98.7389718711861 l 7.768736072438302 -0.4673478706444068 a28.78278062105055,28.78278062105055 0 0,0 0.02543631711175525,0.49345775660132474 l -7.77561397900663 0.3339183206663514" fill="#ff5908" stroke="none" /><path d="M 120.99303781780057 99.45929381324524 l 9.151322259223434 -0.23570559942272767 a30.154357226029447,30.154357226029447 0 0,0 0.008886300109121073,0.5175824313853706 l -9.154019990931221 0.07857625206829068" fill="#ff6c09" stroke="none" /><line stroke="#e1ed5e" stroke-width="0.3" x1="184.99686870605535" x2="189.99668451229388" y1="99.2704041080226" y2="99.22748670261217" /><path d="M 185.99683186730306 99.26182062694052 a86.0,86.0 0 0,1 -10.086455211305974,41.156179273409016" fill="none" id="id16" stroke="none" /><text fill="#e1ed5e" style="font-size:6.75px; font-family:Arial;" text-anchor="middle"><textPath startOffset="21.40746469413373" xlink:href="#id16">April</textPath></text><path d="M 120.99922638620191 100.18025310272382 l 8.74925402376768 0.07510182305283884 a29.74957634724338,29.74957634724338 0 0,0 -0.008767013720740645,0.5106345972846407 l -8.746675578448272 -0.2252833363065506" fill="#ff6609" stroke="none" /><path d="M 120.98066250479742 100.90099992219065 l 8.721733930827085 0.374548782301123 a29.729772594430152,29.729772594430152 0 0,0 -0.026273205960484255,0.5096931766900147 l -8.714019135410028 -0.5242137523678684" fill="#ff6609" stroke="none" /><path d="M 120.96210409425399 101.26102812881392 l 17.689407326481486 1.0641508180877077 a38.72138675515586,38.72138675515586 0 0,0 -0.04561017745323958,0.6631619701121293 l -17.66853318786318 -1.3676562123541804" fill="#ffdd14" stroke="none" /><path d="M 120.93736805541906 101.62068470465957 l 5.06373210050858 0.3919648898593942 a26.078879724959386,26.078879724959386 0 0,0 -0.03838112839999202,0.44604689072510084 l -5.056257349410847 -0.4788328279601524" fill="#ff3304" stroke="none" /><path d="M 120.86939407059847 102.33845913500097 l 31.110887102837044 3.486039790973539 a52.305586877580225,52.305586877580225 0 0,0 -0.1076446829434729,0.8914523940818071 l -31.04646033363391 -4.019585861978754" fill="#82ff25" stroke="none" /><path d="M 120.77682067341334 103.0534771498775 l 9.74480577099343 1.4321508675193417 a30.849481997634356,30.849481997634356 0 0,0 -0.08149920140648248,0.5232833366119201 l -9.71878507744868 -1.5992223860627122" fill="#ff750a" stroke="none" /><path d="M 120.592083275326 104.11899336999214 l 61.776249825978006 12.356980109976403 a84.0,84.0 0 0,0 -0.2949691567025421,1.4115341948583637 l -61.555022958451104 -13.415630756120176" fill="#4dd2ff" stroke="none" /><path d="M 120.43855184770803 104.8234425847677 l 6.977545902840683 1.6466818341979224 a28.169219475600272,28.169219475600272 0 0,0 -0.11510811425269478,0.4696803868913104 l -6.948250262071692 -1.7662180456973324" fill="#ff5007" stroke="none" /><path d="M 120.35273937422433 105.17358676015961 l 21.3365982724617 5.4236798447412555 a43.01514771466837,43.01514771466837 0 0,0 -0.18805919261642493,0.7140913857436693 l -21.240349599040545 -5.789151734857728" fill="#ecff1a" stroke="none" /><path d="M 120.26092885502905 105.52220625578681 l 7.1495732765145235 1.9486479892541948 a28.410372934088745,28.410372934088745 0 0,0 -0.13228614791517831,0.46943687081377283 l -7.115068636524765 -2.0710927839709763" fill="#ff5407" stroke="none" /><path d="M 119.94978838288452 106.5578916946017 l 6.938916009029307 2.2809595165526524 a28.304199593146077,28.304199593146077 0 0,0 -0.1556927468444718,0.46027794125754923 l -6.898737840612471 -2.399739132284362" fill="#ff5207" stroke="none" /><path d="M 119.71291397450082 107.23885506374661 l 10.742003467061044 3.944612465356609 a32.443365151396605,32.443365151396605 0 0,0 -0.1964666933838816,0.5211512458480718 l -10.672706089862723 -4.128431991398839" fill="#ff8b0c" stroke="none" /><path d="M 119.58574465831526 107.57618678355244 l 21.34353272273678 8.256136968459128 a43.88471513321704,43.88471513321704 0 0,0 -0.2778139132640021,0.7002725429054066 l -21.19866013450665 -8.621310528578098" fill="#e2ff1b" stroke="none" /><path d="M 119.31412917781788 108.2440532568976 l 12.349195183563705 5.2711370953264405 a34.427118378843595,34.427118378843595 0 0,0 -0.23667187779504878,0.5415515728023415 l -12.256889423751689 -5.482350737904627" fill="#ffa50f" stroke="none" /><line stroke="#e1ed5e" stroke-width="0.3" x1="174.33088141563837" x2="178.70328620479359" y1="141.23008692659167" y2="143.65538615756765" /><path d="M 175.20536237346943 141.71514677278685 a86.0,86.0 0 0,1 -30.301960400862466,31.631185727798858" fill="none" id="id17" stroke="none" /><text fill="#e1ed5e" style="font-size:6.75px; font-family:Arial;" text-anchor="middle"><textPath startOffset="22.145653131862474" xlink:href="#id17">May</textPath></text><path d="M 117.21940702142032 112.02048342749411 l 4.107049328108924 2.8670394005450506 a26.008769220856326,26.008769220856326 0 0,0 -0.25870662838359837,0.36390327154021423 l -4.057227601195365 -2.937119898794769" fill="#ff3204" stroke="none" /><path d="M 115.89218393027572 113.72728997021213 l 5.6496221257362995 4.880009033520095 a28.465434905673405,28.465434905673405 0 0,0 -0.3225932651027312,0.3670519180580099 l -5.565017796674983 -4.976273229389398" fill="#ff5407" stroke="none" /><path d="M 115.16444852881244 114.52719865689866 l 6.997540786660945 6.7034857828447025 a30.690319845174592,30.690319845174592 0 0,0 -0.3677185499975831,0.37731162653367967 l -6.8814354355125555 -6.82262010144612" fill="#ff730a" stroke="none" /><path d="M 113.86319453409587 115.77377054828091 l 5.085501247446705 5.786366887006414 a28.703529365740504,28.703529365740504 0 0,0 -0.3729005625811179,0.3221026244765729 l -4.985421205102731 -5.872813643947705" fill="#ff5808" stroke="none" /><path d="M 113.31354834802062 116.24036423190432 l 3.71177575979947 4.527762900658933 a26.854734509405045,26.854734509405045 0 0,0 -0.35902123932522295,0.28920209662033886 l -3.633503750118994 -4.590813291072676" fill="#ff3e05" stroke="none" /><line stroke="#e1ed5e" stroke-width="0.3" x1="143.1302829299769" x2="145.66735839644613" y1="173.24464959558577" y2="177.55315839532614" /><path d="M 143.63769802327073 174.10635135553383 a86.0,86.0 0 0,1 -40.68552437913181,11.842963189579606" fill="none" id="id18" stroke="none" /><text fill="#e1ed5e" style="font-size:6.75px; font-family:Arial;" text-anchor="middle"><textPath startOffset="21.407464694133747" xlink:href="#id18">June</textPath></text><path d="M 110.34350942703117 118.27599006163325 l 3.6511573811158544 6.451245245288569 a28.41279403710471,28.41279403710471 0 0,0 -0.42653802147243447,0.23659345036509807 l -3.5398751714873256 -6.512971611086811" fill="#ff5407" stroke="none" /><path d="M 104.9986988182912 120.39639698878246 l 0.8711321512599165 3.554516451715988 a24.659707424163624,24.659707424163624 0 0,0 -0.41201421111052394,0.09723423196555048 l -0.8099857864095134 -3.5689468273277636" fill="#ff1e03" stroke="none" /><line stroke="#e1ed5e" stroke-width="0.3" x1="101.45913802915013" x2="101.54496967792366" y1="184.9874750549273" y2="189.98673829345242" /><path d="M 101.47630435890484 185.9873277026323 a86.0,86.0 0 0,1 -42.54439059252881,-10.42667462771756" fill="none" id="id19" stroke="none" /><text fill="#e1ed5e" style="font-size:6.75px; font-family:Arial;" text-anchor="middle"><textPath startOffset="22.145653131862474" xlink:href="#id19">July</textPath></text><path d="M 92.93061703081489 119.77432235084164 l -1.9574079858086748 5.475218509481049 a26.814590591733133,26.814590591733133 0 0,0 -0.4321118261998044,-0.15867744795302155 l 2.051108963662598 -5.440810212519309" fill="#ff3d05" stroke="none" /><line stroke="#e1ed5e" stroke-width="0.3" x1="58.13341422392154" x2="55.67067388415222" y1="173.97424548756322" y2="178.32567169271397" /><path d="M 57.64086615596768 174.84453072859336 a86.0,86.0 0 0,1 -31.369924170532247,-30.572349798747897" fill="none" id="id20" stroke="none" /><text fill="#e1ed5e" style="font-size:6.75px; font-family:Arial;" text-anchor="middle"><textPath startOffset="22.145653131862474" xlink:href="#id20">August</textPath></text><line stroke="#e1ed5e" stroke-width="0.3" x1="26.387840678322732" x2="22.057713659400548" y1="142.50000000000003" y2="145.00000000000006" /><path d="M 25.521815274538298 143.00000000000003 a86.0,86.0 0 0,1 -11.493303480769221,-40.785679425670985" fill="none" id="id21" stroke="none" /><text fill="#e1ed5e" style="font-size:6.75px; font-family:Arial;" text-anchor="middle"><textPath startOffset="21.40746469413373" xlink:href="#id21">September</textPath></text><line stroke="#e1ed5e" stroke-width="0.3" x1="15.003131293944662" x2="10.003315487706104" y1="100.72959589197737" y2="100.7725132973878" /><path d="M 14.003168132696942 100.73817937305945 a86.0,86.0 0 0,1 10.791469493833604,-42.45332614584628" fill="none" id="id22" stroke="none" /><text fill="#e1ed5e" style="font-size:6.75px; font-family:Arial;" text-anchor="middle"><textPath startOffset="22.145653131862435" xlink:href="#id22">October</textPath></text><path d="M 79.73907114497095 94.47779374421319 l -4.25469994526682 -1.1596373898927324 a25.40990141616462,25.40990141616462 0 0,0 0.11831516555756141,-0.41985878313403463 l 4.234166287634676 1.2325040969297802" fill="#ff2904" stroke="none" /><path d="M 80.83023694016515 91.42560881287825 l -5.403586860621498 -2.416955671905888 a26.919495390676417,26.919495390676417 0 0,0 0.19230202413640118,-0.42021462772786183 l 5.361300371630051 2.509359281848421" fill="#ff3f05" stroke="none" /><line stroke="#e1ed5e" stroke-width="0.3" x1="26.387840678322718" x2="22.05771365940052" y1="57.49999999999999" y2="54.99999999999999" /><path d="M 25.521815274538284 56.99999999999999 a86.0,86.0 0 0,1 29.574782752854787,-30.34633250058573" fill="none" id="id23" stroke="none" /><text fill="#e1ed5e" style="font-size:6.75px; font-family:Arial;" text-anchor="middle"><textPath startOffset="21.40746469413373" xlink:href="#id23">November</textPath></text><path d="M 85.08716467003674 85.21462403516908 l -4.467724913558859 -4.429539459990284 a27.291373914404193,27.291373914404193 0 0,0 0.3327053444210221,-0.3298617260856915 l 4.391027649007861 4.505581196304649" fill="#ff4406" stroke="none" /><line stroke="#e1ed5e" stroke-width="0.3" x1="56.869717070023135" x2="54.33264160355391" y1="26.7553504044142" y2="22.446841604673864" /><path d="M 56.362301976729285 25.89364864446614 a86.0,86.0 0 0,1 42.16139366436587,-11.88097634709845" fill="none" id="id24" stroke="none" /><text fill="#e1ed5e" style="font-size:6.75px; font-family:Arial;" text-anchor="middle"><textPath startOffset="22.145653131862474" xlink:href="#id24">December</textPath></text></svg>