<?xml version="1.0" encoding="utf-8" ?>
<svg baseProfile="full" height="200mm" version="1.1" viewBox="0,0,200,200" width="200mm" xmlns="http://www.w3.org/2000/svg" xmlns:ev="http://www.w3.org/2001/xml-events" xmlns:xlink="http://www.w3.org/1999/xlink"><defs /><rect fill="#1a1a1a" height="200" width="200" x="0" y="0" /><text alignment-baseline="middle" fill="#e1ed5e" style="dominant-baseline: central; font-size:9.0px; font-family:Arial;" text-anchor="middle" x="100.0" y="100.0">2023</text><line stroke="#e1ed5e" stroke-width="0.3" x1="100.0" x2="100.0" y1="15.0" y2="10.0" /><path d="M 100.0 14.0 a86.0,86.0 0 0,1 42.46469731375804,11.215312516191453" fill="none" id="id1" stroke="none" /><text fill="#e1ed5e" style="font-size:6.75px; font-family:Arial;" text-anchor="middle"><textPath startOffset="22.20632615414155" xlink:href="#id1">January</textPath></text><line stroke="#e1ed5e" stroke-width="0.3" x1="143.23703022742887" x2="145.7803849466894" y1="26.81831364943548" y2="22.513508569990506" /><path d="M 143.74570117128098 25.957352633546492 a86.0,86.0 0 0,1 28.547481713284135,27.462654790039103" fill="none" id="id2" stroke="none" /><text fill="#e1ed5e" style="font-size:6.75px; font-family:Arial;" text-anchor="middle"><textPath startOffset="19.985693538727396" xlink:href="#id2">February</textPath></text><line stroke="#e1ed5e" stroke-width="0.3" x1="172.23445277983987" x2="176.4835382374775" y1="55.19839476539836" y2="52.563006222186495" /><path d="M 173.08426987136738 54.67131705675599 a86.0,86.0 0 0,1 12.851231095245387,41.99856678651699" fill="none" id="id3" stroke="none" /><text fill="#e1ed5e" style="font-size:6.75px; font-family:Arial;" text-anchor="middle"><textPath startOffset="22.20632615414155" xlink:href="#id3">March</textPath></text><line stroke="#e1ed5e" stroke-width="0.3" x1="184.98032266829074" x2="189.97916517819016" y1="98.17113171792111" y2="98.06355123074" /><path d="M 185.9800911702706 98.14961562048488 a86.0,86.0 0 0,1 -9.607161424134198,41.387399972396054" fill="none" id="id4" stroke="none" /><text fill="#e1ed5e" style="font-size:6.75px; font-family:Arial;" text-anchor="middle"><textPath startOffset="21.466115282336823" xlink:href="#id4">April</textPath></text><line stroke="#e1ed5e" stroke-width="0.3" x1="174.80103733775053" x2="179.2010983576182" y1="140.37084112569926" y2="142.7455964860345" /><path d="M 175.68104954172406 140.8457921977663 a86.0,86.0 0 0,1 -30.038265399797805,32.042727171017184" fill="none" id="id5" stroke="none" /><text fill="#e1ed5e" style="font-size:6.75px; font-family:Arial;" text-anchor="middle"><textPath startOffset="22.206326154141568" xlink:href="#id5">May</textPath></text><line stroke="#e1ed5e" stroke-width="0.3" x1="143.8653032363475" x2="146.44561519142675" y1="172.8068346515853" y2="177.08958963109032" /><path d="M 144.38136562736335 173.6633856474863 a86.0,86.0 0 0,1 -40.68145358897372,12.25698825130547" fill="none" id="id6" stroke="none" /><text fill="#e1ed5e" style="font-size:6.75px; font-family:Arial;" text-anchor="middle"><textPath startOffset="21.466115282336833" xlink:href="#id6">June</textPath></text><line stroke="#e1ed5e" stroke-width="0.3" x1="102.19456741930631" x2="102.32365962044197" y1="184.97166512339345" y2="189.96999836594603" /><path d="M 102.22038585953345 185.97133177190398 a86.0,86.0 0 0,1 -42.740103519485714,-10.115201625700543" fill="none" id="id7" stroke="none" /><text fill="#e1ed5e" style="font-size:6.75px; font-family:Arial;" text-anchor="middle"><textPath startOffset="22.20632615414155" xlink:href="#id7">July</textPath></text><line stroke="#e1ed5e" stroke-width="0.3" x1="58.666819895761336" x2="56.23545636021788" y1="174.27360380694188" y2="178.64263932499728" /><path d="M 58.180547188652646 175.14741091055294 a86.0,86.0 0 0,1 -31.652253787137756,-30.449443065178592" fill="none" id="id8" stroke="none" /><text fill="#e1ed5e" style="font-size:6.75px; font-family:Arial;" text-anchor="middle"><textPath startOffset="22.20632615414155" xlink:href="#id8">August</textPath></text><line stroke="#e1ed5e" stroke-width="0.3" x1="26.63291911575756" x2="22.317208475507996" y1="142.92168965132927" y2="145.44649492493687" /><path d="M 25.769776987707644 143.4266507060508 a86.0,86.0 0 0,1 -11.730757126820373,-40.83630448921669" fill="none" id="id9" stroke="none" /><text fill="#e1ed5e" style="font-size:6.75px; font-family:Arial;" text-anchor="middle"><textPath startOffset="21.46611528233685" xlink:href="#id9">September</textPath></text><line stroke="#e1ed5e" stroke-width="0.3" x1="15.007084014347285" x2="10.007500721073583" y1="101.09737516637583" y2="101.16192664675087" /><path d="M 14.007167355692545 101.11028546245083 a86.0,86.0 0 0,1 10.666146001902534,-42.60595125391555" fill="none" id="id10" stroke="none" /><text fill="#e1ed5e" style="font-size:6.75px; font-family:Arial;" text-anchor="middle"><textPath startOffset="22.20632615414155" xlink:href="#id10">October</textPath></text><path d="M 79.21141760316559 97.0276538004421 l -10.279977470548245 -1.4698285521757275 a31.384523714054993,31.384523714054993 0 0,0 0.08106787850961646,-0.5341360301216519 l 10.253153698599327 1.6465636946894715" fill="#ff810b" stroke="none" /><path d="M 79.3925641242962 95.95851677861259 l -12.163072447945222 -2.3853939672740228 a33.39477453417655,33.39477453417655 0 0,0 0.11548343044913857,-0.5631382199755423 l 12.12020972158109 2.5944078434129674" fill="#ff9c0e" stroke="none" /><path d="M 79.46518482838121 95.60439243477599 l -13.991432647499664 -2.994954991300439 a35.308387153324965,35.308387153324965 0 0,0 0.13233182166056298,-0.5932176088416581 l 13.937806438837065 3.2353507696920563" fill="#ffb510" stroke="none" /><path d="M 79.62865764111835 94.90015583598534 l -4.864950143210312 -1.2179112774694643 a26.015082030805612,26.015082030805612 0 0,0 0.11248880357580969,-0.43346524724849556 l 4.843265007764195 1.3014729502668236" fill="#ff3705" stroke="none" /><path d="M 80.02781315780177 93.51064311812611 l -22.837307541504515 -7.420291029163102 a45.01256618320369,45.01256618320369 0 0,0 0.2457744120401589,-0.7348342092424444 l 22.706195835692583 7.812298341327868" fill="#d1ff1c" stroke="none" /><path d="M 80.65960295795068 91.81776055985345 l -8.911029838492306 -3.7699422425667315 a30.675686915913996,30.675686915913996 0 0,0 0.2099229138940079,-0.48453102811439697 l 8.844816214755618 3.922772415267728" fill="#ff780b" stroke="none" /><path d="M 80.95270993114464 91.15688171328213 l -21.395764691305082 -9.933448659416714 a44.58923799097726,44.58923799097726 0 0,0 0.32919980920671926,-0.6933787546077592 l 21.22160668825661 10.300269829665003" fill="#d6ff1c" stroke="none" /><line stroke="#e1ed5e" stroke-width="0.3" x1="26.266209847984243" x2="21.928928074336255" y1="57.711370442889674" y2="55.22380399835377" /><path d="M 25.398753493254645 57.213857153982495 a86.0,86.0 0 0,1 29.58750427330803,-30.492523968695096" fill="none" id="id11" stroke="none" /><text fill="#e1ed5e" style="font-size:6.75px; font-family:Arial;" text-anchor="middle"><textPath startOffset="21.46611528233685" xlink:href="#id11">November</textPath></text><path d="M 81.78341655067845 89.55222093294921 l -14.863389600858445 -8.524617756632779 a38.13445237886539,38.13445237886539 0 0,0 0.33147977862542755,-0.5666063924198146 l 14.714450147762694 8.779203561406487" fill="#ffd914" stroke="none" /><path d="M 84.07557802195018 86.31012108654704 l -22.652299524481915 -19.473688779968064 a50.87224846652655,50.87224846652655 0 0,0 0.5765718596725186,-0.6591213061295502 l 22.313735801231555 19.860725642300558" fill="#8fff24" stroke="none" /><path d="M 85.05521093208273 85.24692304244772 l -8.679263434669167 -8.567925636463228 a33.19585845606405,33.19585845606405 0 0,0 0.40493288186460846,-0.4031939713826358 l 8.530494752637246 8.716055458495974" fill="#ff990e" stroke="none" /><path d="M 85.57189188830299 84.74124197986013 l -43.28432433509105 -45.776274060419595 a84.0,84.0 0 0,0 1.0591684648205755,-0.98438165570141 l 42.48994798647562 46.514560302195655" fill="#4dd2ff" stroke="none" /><path d="M 86.65592168130627 83.78471172551755 l -11.29717717208535 -13.727960834630263 a38.77872663422858,38.77872663422858 0 0,0 0.519074679279902,-0.41972229142005124 l 11.059199094240949 13.920389223314448" fill="#ffe115" stroke="none" /><path d="M 89.00827224532344 82.1063720568725 l -9.927897766376097 -16.161800296896804 a39.967523372765065,39.967523372765065 0 0,0 0.5893076835971804,-0.3550512855586288 l 9.648228016561267 16.33029819191405" fill="#fff016" stroke="none" /><line stroke="#e1ed5e" stroke-width="0.3" x1="56.762969772571076" x2="54.21961505331055" y1="26.818313649435495" y2="22.513508569990535" /><path d="M 56.25429882871897 25.957352633546506 a86.0,86.0 0 0,1 42.265352541879196,-11.944610805530505" fill="none" id="id12" stroke="none" /><text fill="#e1ed5e" style="font-size:6.75px; font-family:Arial;" text-anchor="middle"><textPath startOffset="22.20632615414155" xlink:href="#id12">December</textPath></text><path d="M 89.63071344664047 81.73862282372117 l -12.319751131248347 -21.696345352971697 a45.950103599209996,45.950103599209996 0 0,0 0.6911681348397302,-0.3846343187264505 l 11.944458907336571 21.905195069258333" fill="#c7ff1e" stroke="none" /><path d="M 89.94658935756843 81.56283822128135 l -0.5720421235704282 -1.049080113369251 a22.194906387716546,22.194906387716546 0 0,0 0.3369978973125704,-0.18001260576811134 l 0.5538991797295525 1.0587714456391117" fill="#ff0000" stroke="none" /><path d="M 90.58718382345135 81.22770947309562 l -3.1558066293539877 -6.293729504732117 a28.040606973877335,28.040606973877335 0 0,0 0.4333325073090964,-0.21263437939415597 l 3.0470028550344654 6.347119044261103" fill="#ff5307" stroke="none" /><path d="M 90.91171255644093 81.06846463323043 l -0.5707711840557027 -1.1889561069001466 a22.31886177011979,22.31886177011979 0 0,0 0.34777227953216117,-0.16328374835750595 l 0.5502206932239331 1.1986048378976601" fill="#ff0200" stroke="none" /><path d="M 91.90106846888425 80.62456947434976 l -0.5247680966383027 -1.255425824928834 a22.36068936835254,22.36068936835254 0 0,0 0.35640397231958104,-0.14538612907996037 l 0.5030802547303411 1.2642728401923713" fill="#ff0200" stroke="none" /><path d="M 92.57280143429618 80.3572730644239 l -6.488370282305849 -17.159805892460792 a39.34551408893307,39.34551408893307 0 0,0 0.6355568466919275,-0.2340809503215048 l 6.192031109841351 17.26895011058862" fill="#ffe815" stroke="none" /><path d="M 92.91201910852362 80.23233633223022 l -0.44647454704497125 -1.2451724711642809 a22.32279779411079,22.32279779411079 0 0,0 0.36281774318030524,-0.1265799864824757 l 0.4249747998013807 1.2526733108189665" fill="#ff0200" stroke="none" /><path d="M 93.59665428221793 80.00007090966166 l -7.351354387031879 -22.96089777728115 a45.10902814429664,45.10902814429664 0 0,0 0.7415379208673625,-0.23039944163512524 l 6.955031093453788 23.0840373537988" fill="#d0ff1d" stroke="none" /><path d="M 94.28887869178378 79.79150937346287 l -0.5393069321396645 -1.9083081053263231 a22.983051131944922,22.983051131944922 0 0,0 0.38163040198991943,-0.10431400503579928 l 0.5063786409260226 1.9173086511884183" fill="#ff0c01" stroke="none" /><path d="M 95.33964822691252 79.52364482259891 l -0.4352058170980835 -1.9121794491207669 a22.96107989354738,22.96107989354738 0 0,0 0.38613678217612174,-0.08439454461543891 l 0.4022263107684408 1.919387491832074" fill="#ff0b01" stroke="none" /><path d="M 96.75951476605007 79.25152402106235 l -0.2994844582740523 -1.917566549436207 a22.94081230732505,22.94081230732505 0 0,0 0.3906831473935076,-0.0575765403059028 l 0.2664323304518959 1.922437573903079" fill="#ff0b01" stroke="none" /><path d="M 97.11714578562143 79.19881850522333 l -1.1197948345160482 -8.079859006919229 a29.15708661490747,29.15708661490747 0 0,0 0.4977326719554767,-0.06461998584315709 l 0.9805474340527137 8.097937315926522" fill="#ff6309" stroke="none" /></svg>